<?xml version="1.0" encoding="utf-8"?>
<!-- Generator: Adobe Illustrator 21.0.2, SVG Export Plug-In . SVG Version: 6.00 Build 0)  -->
<svg version="1.1" id="Layer_1" xmlns="http://www.w3.org/2000/svg" xmlns:xlink="http://www.w3.org/1999/xlink" x="0px" y="0px"
	 viewBox="0 0 324 78" style="enable-background:new 0 0 324 78;" xml:space="preserve">
<style type="text/css">
	.st0{fill:#FFFFFF;}
	.st1{fill:#E2231A;}
</style>
<g>
	<path class="st0" d="M198.4,67.6h-6.4l-12-32.4h8.5l6.6,20l6.5-20h8.5L198.4,67.6z"/>
	<path class="st0" d="M216.6,31.1c-2.8,0-5.1-2.3-5.1-5.1c0-2.8,2.3-5,5.1-5c2.8,0,5,2.2,5,5C221.7,28.8,219.4,31.1,216.6,31.1z
		 M212.6,67.6V35.1h8.1v32.4H212.6z"/>
	<path class="st0" d="M245.2,67.6v-3.1c-2.2,2.5-4.6,3.4-8,3.4c-3.2,0-6.2-1.1-8-2.9c-3.2-3.2-3.3-8.8-3.3-13.7s0.1-10.4,3.3-13.6
		c1.8-1.8,4.7-2.9,7.9-2.9c3.3,0,5.8,0.9,7.9,3.2V23.2h8.1v44.3H245.2z M239.4,42c-4.9,0-5.5,4-5.5,9.3s0.6,9.3,5.5,9.3
		c4.9,0,5.5-4,5.5-9.3S244.3,42,239.4,42z"/>
	<path class="st0" d="M266.1,53.9c0,4.2,2.6,7.2,7.1,7.2c3.5,0,5.3-1,7.3-3l4.9,4.8c-3.3,3.3-6.5,5.1-12.3,5.1
		c-7.7,0-15-3.5-15-16.6c0-10.6,5.7-16.6,14.1-16.6c9,0,14.1,6.6,14.1,15.5v3.6H266.1z M277.6,44.8c-0.9-1.9-2.7-3.4-5.4-3.4
		c-2.7,0-4.5,1.4-5.4,3.4c-0.5,1.2-0.7,2.1-0.7,3.5h12.3C278.3,46.9,278.1,46,277.6,44.8z"/>
	<path class="st0" d="M313.8,64c-2,2.1-5.3,4-10.1,4c-4.8,0-8-1.9-10-4c-2.9-3-3.7-6.7-3.7-12.6c0-5.9,0.7-9.5,3.7-12.6
		c2-2.1,5.2-4,10-4c4.8,0,8.1,1.9,10.1,4c2.9,3.1,3.7,6.7,3.7,12.6C317.5,57.2,316.7,60.9,313.8,64z M307.5,43.5
		c-0.9-0.9-2.2-1.4-3.8-1.4c-1.6,0-2.8,0.5-3.7,1.4c-1.7,1.7-1.9,4.5-1.9,7.8c0,3.4,0.2,6.2,1.9,7.9c0.9,0.9,2.1,1.4,3.7,1.4
		c1.6,0,2.9-0.5,3.8-1.4c1.7-1.7,1.9-4.5,1.9-7.9C309.4,48,309.2,45.2,307.5,43.5z"/>
</g>
<rect x="144.6" y="18.8" transform="matrix(0.7067 -0.7075 0.7075 0.7067 30.5992 118.6618)" class="st1" width="27.7" height="7.3"/>
<rect x="130.2" y="6" class="st1" width="7.3" height="21"/>
<rect x="154.8" y="42.9" class="st1" width="21.5" height="7.3"/>
<path class="st1" d="M139.2,57c-1.7,1.8-3.8,2.7-6.3,2.7c-2.4,0-4.5-0.9-6.2-2.7c-1.7-1.8-2.7-3.9-2.7-6.3c0-2.6,0.9-4.7,2.7-6.4
	c1.7-1.8,3.8-2.7,6.2-2.6c2.5-0.1,4.6,0.8,6.4,2.6c1.6,1.7,2.5,3.8,2.6,6.4C141.8,53.1,140.9,55.2,139.2,57 M144.9,38.6
	c-3.4-3.4-7.4-5-12-5c-4.6,0-8.6,1.6-11.9,5c-3.4,3.4-5,7.4-5,12.1c0,4.7,1.6,8.8,5,12c3.3,3.4,7.3,5.1,11.9,5.1
	c4.6,0,8.7-1.7,12-5.1c3.3-3.3,4.9-7.3,4.9-12C149.8,46,148.2,41.9,144.9,38.6"/>
<path class="st1" d="M26,25.2c-5.8-0.1-10.7,2-14.7,6.2c-4.1,4.1-6.2,9.1-6.2,14.9c0,5.8,2,10.9,6.2,15c4.1,4.1,8.9,6.1,14.7,6.1
	c4.7,0,9-1.4,12.7-4.3c3.7-3,6.1-6.6,7.3-11.2h-8.5c-1.1,2.2-2.7,4-4.6,5.4c-2.2,1.3-4.4,2-6.9,2c-3.6,0-6.6-1.3-9.1-3.8
	c-2.6-2.6-3.8-5.6-3.7-9.2c-0.1-3.6,1.2-6.6,3.7-9.2c2.5-2.5,5.5-3.8,9.1-3.8c2.5,0,4.8,0.7,6.9,2.1c2,1.3,3.5,3.2,4.6,5.4h8.5
	c-1.2-4.5-3.7-8.3-7.3-11.2C35,26.6,30.7,25.1,26,25.2"/>
<path class="st1" d="M81,51.8l1.6-0.9v3.3c0,2.8-0.8,4.8-2.3,5.9c-1.6,1.1-3.2,1.6-5.1,1.6c-1.2,0-2.1-0.3-2.9-0.9
	c-0.8-0.7-1.2-1.7-1.2-3.2c0-1.6,0.6-2.8,2-3.7c0.8-0.5,2.1-0.9,3.8-1.1L81,51.8z M77.5,33.5c-5.5-0.1-9.3,1.4-11.5,4.3
	c-1.4,1.8-2.1,4.1-2.3,7.1h8.1c0.2-1.4,0.6-2.3,1.2-3c0.9-1.1,2.3-1.7,4.3-1.6c1.7-0.1,3,0.2,4,0.8c0.9,0.5,1.3,1.4,1.4,2.7
	c0,1.1-0.6,2-1.9,2.5l-6.2,1c-2.9,0.4-5.2,1.1-7,2.1c-3,1.8-4.5,4.7-4.4,8.8c-0.1,2.9,0.9,5.2,2.7,7c1.6,1.4,3.9,2.2,6.6,2.3
	c4.4-0.1,8-1.2,10.5-3.4v3.4H91V43.6c0-3.9-1.4-6.6-4.1-8C84.2,34.1,81,33.4,77.5,33.5"/>
<rect x="50.2" y="25.2" class="st1" width="8.1" height="42.4"/>
<path class="st1" d="M110,34.7c-2.2,0.9-4.1,2.3-5.8,4.6v-4.1l-7.7-0.1v32.5h8V52c0-2.7,0.3-4.5,1-5.7c0.5-1.2,1.6-2.3,2.8-3.1
	c1.4-0.9,2.9-1.4,4.4-1.4l2.5,0.2l-0.1-8.3l-2.1,0.2L110,34.7z"/>
</svg>
